<?xml version="1.0" encoding="utf-8"?>
<!-- Generator: Adobe Illustrator 18.0.0, SVG Export Plug-In . SVG Version: 6.00 Build 0)  -->
<!DOCTYPE svg PUBLIC "-//W3C//DTD SVG 1.1//EN" "http://www.w3.org/Graphics/SVG/1.1/DTD/svg11.dtd">
<svg version="1.1" id="图层_1" xmlns="http://www.w3.org/2000/svg" xmlns:xlink="http://www.w3.org/1999/xlink" x="0px" y="0px"
	 viewBox="0.5 0.5 63 63" enable-background="new 0.5 0.5 63 63" xml:space="preserve">
<g>
	<path fill="#2C2C2C" d="M40.5,39.5c-2.5,0-6.1-0.8-9.1-4.7c0,0,0-0.1-0.1-0.1c-1.3-2-2-5.7-0.7-9.1c0.9-2.6,3.3-6,9.5-8.1l0,0
		c0,0,6-2.7,8.1-7.5c0.2-0.5,0.8-0.7,1.3-0.5c0.6,0.2,5.4,2.5,3.7,16.6c-0.1,0.4-1.5,9.9-9.1,12.8l0,0
		C42.9,39.5,40.8,39.5,40.5,39.5z M33,33.6c2.5,3.2,5.5,3.9,7.5,3.9c1.4,0,2.4-0.3,2.7-0.4c0.1,0,0.1-0.1,0.2-0.1
		c6.5-2.4,7.8-11.1,7.8-11.2c1.1-9-0.7-12.5-1.8-13.8c-2.7,4.8-8.3,7.3-8.6,7.4c-4.4,1.5-7.2,3.8-8.3,6.9C31.4,29.1,32,32,33,33.6z"
		/>
	<path fill="#2C2C2C" d="M22,40.6c-2,0-5.5-0.8-7.2-6.5l0,0c0,0-1.1-3.1-3.7-4.4c-0.3-0.1-0.5-0.4-0.5-0.7c-0.1-0.3,0-0.6,0.2-0.8
		c0.2-0.3,1.3-1.4,5.2-1.4c1.5,0,3.3,0.2,5.3,0.5c0.3,0.1,6.1,1.5,7.3,5.9c0,0,0,0.1,0,0.1c0.4,1.5,0.1,4.8-3.6,6.7c0,0-0.1,0-0.1,0
		C24.3,40.2,23.2,40.6,22,40.6z M13.6,28.9c2.1,1.8,3,4.4,3.1,4.5c1,3.4,2.8,5.1,5.3,5.1c0.9,0,1.7-0.2,2.1-0.4
		c3-1.6,2.6-4.1,2.6-4.4c0,0,0,0,0-0.1c-0.9-3.3-5.7-4.5-5.8-4.5c-1.8-0.3-3.5-0.4-4.9-0.4C14.9,28.7,14.1,28.8,13.6,28.9z"/>
	<path fill="#2C2C2C" d="M27.7,54.5c-0.5,0-0.9-0.4-1-0.9c-0.1-1.2-0.2-2.7-0.3-4.2c-0.1-1.5-0.2-3-0.3-4.1l0-0.3
		c-0.2-3.1-0.6-8.8-7.4-12c-0.5-0.2-0.7-0.8-0.5-1.3c0.2-0.5,0.8-0.7,1.3-0.5c7.9,3.8,8.3,10.5,8.6,13.7l0,0.3
		c0.1,1.2,0.2,2.7,0.3,4.2c0.1,1.5,0.2,3,0.3,4.1C28.7,54,28.3,54.5,27.7,54.5C27.7,54.5,27.7,54.5,27.7,54.5z"/>
	<path fill="#2C2C2C" d="M32.4,54.5c-0.5,0-1-0.4-1-0.9c0-0.3-0.1-0.7-0.1-1.1c-0.5-5-1.8-18.4,8-25.3c2.2-1.3,5.5-3.8,5.7-5
		c0.1-0.5,0.6-0.9,1.2-0.8c0.5,0.1,0.9,0.6,0.8,1.2c-0.5,2.6-5.6,5.7-6.6,6.3c-8.8,6.2-7.6,18.3-7.1,23.4c0,0.4,0.1,0.8,0.1,1.1
		C33.4,54,33,54.5,32.4,54.5C32.4,54.5,32.4,54.5,32.4,54.5z"/>
</g>
</svg>
